<mxfile host="app.diagrams.net" modified="2022-06-17T15:58:59.675Z" agent="5.0 (Windows NT 10.0; Win64; x64) AppleWebKit/537.36 (KHTML, like Gecko) Chrome/100.0.4896.127 Safari/537.36" etag="WEOb9Jq4tffXpBP_fOoy" version="20.0.1" type="github">
  <diagram id="17G2DBIcZU6sUmtRgQNI" name="Page-1">
    <mxGraphModel dx="903" dy="497" grid="1" gridSize="10" guides="1" tooltips="1" connect="1" arrows="1" fold="1" page="1" pageScale="1" pageWidth="850" pageHeight="1100" math="0" shadow="0">
      <root>
        <mxCell id="0" />
        <mxCell id="1" parent="0" />
        <mxCell id="mP8B_jTsaXODHllWjWsl-1" value="&lt;br&gt;&lt;br&gt;&lt;br&gt;&lt;br&gt;&lt;br&gt;&lt;br&gt;&lt;br&gt;&lt;br&gt;&lt;br&gt;&lt;br&gt;&lt;br&gt;&lt;br&gt;&lt;br&gt;&lt;br&gt;&lt;br&gt;&lt;br&gt;&lt;br&gt;&lt;br&gt;&lt;br&gt;&lt;br&gt;&lt;br&gt;&lt;br&gt;&lt;br&gt;&lt;br&gt;&lt;br&gt;&lt;br&gt;&lt;br&gt;&lt;br&gt;&lt;br&gt;&lt;br&gt;&lt;br&gt;&lt;br&gt;&lt;br&gt;&lt;br&gt;&lt;br&gt;&lt;br&gt;&lt;br&gt;&lt;br&gt;&lt;br&gt;&lt;br&gt;&lt;br&gt;&lt;br&gt;&lt;br&gt;&lt;br&gt;&lt;br&gt;&lt;br&gt;&lt;br&gt;&lt;br&gt;&lt;br&gt;&lt;br&gt;&lt;br&gt;&amp;nbsp; &amp;nbsp; &amp;nbsp; &amp;nbsp; &amp;nbsp; &amp;nbsp; &amp;nbsp; &amp;nbsp; &lt;br&gt;&lt;br&gt;&lt;br&gt;&lt;br&gt;&lt;br&gt;&lt;br&gt;&lt;br&gt;&amp;nbsp; &amp;nbsp; &amp;nbsp;Windows&amp;nbsp;" style="rounded=0;whiteSpace=wrap;html=1;dashed=1;dashPattern=1 2;" parent="1" vertex="1">
          <mxGeometry x="16.25" y="40" width="713.5" height="980" as="geometry" />
        </mxCell>
        <mxCell id="mP8B_jTsaXODHllWjWsl-2" value="&lt;p class=&quot;MsoNormal&quot; style=&quot;font-size: 10.5px;&quot;&gt;Chapter 0: Environment check&amp;nbsp;&lt;/p&gt;" style="rounded=1;whiteSpace=wrap;html=1;fillColor=#dae8fc;strokeColor=#6c8ebf;fontColor=#0000FF;fontSize=10.5;" parent="1" vertex="1">
          <mxGeometry x="271.5" y="50" width="240" height="40" as="geometry" />
        </mxCell>
        <mxCell id="mP8B_jTsaXODHllWjWsl-3" value="&lt;p style=&quot;margin-left: 0.25in; font-size: 10.5px;&quot; class=&quot;MsoNormal&quot;&gt;Chapter 1.&lt;br style=&quot;font-size: 10.5px;&quot;&gt;Software &lt;b style=&quot;font-size: 10.5px;&quot;&gt;downloads &lt;/b&gt;checklist and related Setup environment&lt;/p&gt;" style="rounded=1;whiteSpace=wrap;html=1;fillColor=#f9f7ed;strokeColor=#36393d;fontSize=10.5;" parent="1" vertex="1">
          <mxGeometry x="153" y="120" width="455" height="60" as="geometry" />
        </mxCell>
        <mxCell id="mP8B_jTsaXODHllWjWsl-4" value="&lt;font color=&quot;#ff0000&quot;&gt;&amp;nbsp; &amp;nbsp; &amp;nbsp; &amp;nbsp;&lt;/font&gt;&lt;br&gt;&lt;br&gt;&lt;br&gt;&lt;b style=&quot;color: rgb(255, 0, 0); background-color: initial; text-align: left;&quot;&gt;&lt;br&gt;&lt;br&gt;&lt;br&gt;&lt;br&gt;&amp;nbsp; &amp;nbsp; &amp;nbsp; &amp;nbsp; &amp;nbsp; &amp;nbsp; &amp;nbsp;&lt;/b&gt;" style="rounded=1;whiteSpace=wrap;html=1;fillColor=#dae8fc;strokeColor=#6c8ebf;" parent="1" vertex="1">
          <mxGeometry x="56" y="210" width="634" height="140" as="geometry" />
        </mxCell>
        <mxCell id="mP8B_jTsaXODHllWjWsl-11" value="" style="edgeStyle=orthogonalEdgeStyle;rounded=0;orthogonalLoop=1;jettySize=auto;html=1;startArrow=classic;startFill=1;dashed=1;dashPattern=1 4;" parent="1" source="mP8B_jTsaXODHllWjWsl-5" target="mP8B_jTsaXODHllWjWsl-6" edge="1">
          <mxGeometry relative="1" as="geometry">
            <Array as="points">
              <mxPoint x="310" y="251" />
              <mxPoint x="310" y="280" />
            </Array>
          </mxGeometry>
        </mxCell>
        <mxCell id="mP8B_jTsaXODHllWjWsl-12" value="&lt;font color=&quot;#0000ff&quot;&gt;&lt;span style=&quot;font-size: 10.5px;&quot;&gt;chapter 4 connection&lt;/span&gt;&lt;/font&gt;" style="edgeLabel;html=1;align=center;verticalAlign=middle;resizable=0;points=[];fontSize=10.5;" parent="mP8B_jTsaXODHllWjWsl-11" vertex="1" connectable="0">
          <mxGeometry x="-0.212" relative="1" as="geometry">
            <mxPoint x="-1" as="offset" />
          </mxGeometry>
        </mxCell>
        <mxCell id="mP8B_jTsaXODHllWjWsl-5" value="&lt;p style=&quot;margin-left: 0.25in; font-size: 10.5px;&quot; class=&quot;MsoNormal&quot;&gt;Chapter 2.&amp;nbsp; &amp;nbsp; &amp;nbsp; &amp;nbsp; &amp;nbsp; &amp;nbsp; &amp;nbsp; &amp;nbsp; &amp;nbsp; &amp;nbsp; &amp;nbsp; &amp;nbsp; &amp;nbsp; &amp;nbsp; &amp;nbsp; &lt;span style=&quot;background-color: initial;&quot;&gt;Oracle Database 19c&amp;nbsp;&lt;/span&gt;&lt;span style=&quot;background-color: initial;&quot;&gt;installation&lt;/span&gt;&lt;/p&gt;" style="rounded=1;whiteSpace=wrap;html=1;align=left;fillColor=#f9f7ed;strokeColor=#36393d;fontSize=10.5;dashed=1;dashPattern=1 2;" parent="1" vertex="1">
          <mxGeometry x="70" y="223" width="170" height="55" as="geometry" />
        </mxCell>
        <mxCell id="mP8B_jTsaXODHllWjWsl-6" value="&lt;p style=&quot;margin-left: 0.25in; font-size: 10.5px;&quot; class=&quot;MsoNormal&quot;&gt;Chapter 3.&amp;nbsp; &amp;nbsp; &amp;nbsp; &amp;nbsp; &amp;nbsp; &amp;nbsp; &amp;nbsp; &amp;nbsp; &amp;nbsp; SQL developer&lt;br style=&quot;font-size: 10.5px;&quot;&gt;installation&lt;/p&gt;" style="rounded=1;whiteSpace=wrap;html=1;align=left;fillColor=#d5e8d4;strokeColor=#82b366;fontSize=10.5;dashed=1;dashPattern=1 4;" parent="1" vertex="1">
          <mxGeometry x="520" y="253" width="145" height="62" as="geometry" />
        </mxCell>
        <mxCell id="mP8B_jTsaXODHllWjWsl-14" value="&lt;p style=&quot;margin-left: 0.25in; font-size: 10.5px;&quot; class=&quot;MsoNormal&quot;&gt;Chapter 5.&amp;nbsp; &amp;nbsp; &amp;nbsp; &amp;nbsp; &amp;nbsp; &amp;nbsp; &amp;nbsp; &amp;nbsp; &amp;nbsp; &amp;nbsp; &amp;nbsp; &amp;nbsp;&lt;a name=&quot;_Hlk105871212&quot; style=&quot;font-size: 10.5px;&quot;&gt;Import SQL file to the database by SQL developer&amp;nbsp;&lt;/a&gt;&lt;/p&gt;" style="rounded=1;whiteSpace=wrap;html=1;align=left;fillColor=#f9f7ed;strokeColor=#36393d;fontSize=10.5;dashed=1;dashPattern=1 2;" parent="1" vertex="1">
          <mxGeometry x="70" y="286" width="170" height="51" as="geometry" />
        </mxCell>
        <mxCell id="mP8B_jTsaXODHllWjWsl-17" value="" style="edgeStyle=orthogonalEdgeStyle;rounded=0;orthogonalLoop=1;jettySize=auto;html=1;startArrow=none;startFill=0;entryX=0;entryY=0.75;entryDx=0;entryDy=0;dashed=1;dashPattern=1 4;" parent="1" target="mP8B_jTsaXODHllWjWsl-6" edge="1">
          <mxGeometry relative="1" as="geometry">
            <mxPoint x="240" y="330" as="sourcePoint" />
            <mxPoint x="280" y="310" as="targetPoint" />
            <Array as="points">
              <mxPoint x="310" y="330" />
              <mxPoint x="310" y="300" />
            </Array>
          </mxGeometry>
        </mxCell>
        <mxCell id="mP8B_jTsaXODHllWjWsl-18" value="&lt;font color=&quot;#0000ff&quot; style=&quot;font-size: 10.5px;&quot;&gt;import&lt;/font&gt;" style="edgeLabel;html=1;align=center;verticalAlign=middle;resizable=0;points=[];fontSize=10.5;" parent="mP8B_jTsaXODHllWjWsl-17" vertex="1" connectable="0">
          <mxGeometry x="-0.212" relative="1" as="geometry">
            <mxPoint as="offset" />
          </mxGeometry>
        </mxCell>
        <mxCell id="mP8B_jTsaXODHllWjWsl-23" value="" style="rounded=1;whiteSpace=wrap;html=1;align=center;horizontal=1;fontSize=10;verticalAlign=top;fillColor=#eeeeee;strokeColor=#36393d;" parent="1" vertex="1">
          <mxGeometry x="56" y="380" width="634" height="160" as="geometry" />
        </mxCell>
        <mxCell id="mP8B_jTsaXODHllWjWsl-28" value="" style="edgeStyle=orthogonalEdgeStyle;rounded=0;orthogonalLoop=1;jettySize=auto;html=1;fontColor=#00994D;startArrow=none;startFill=0;endArrow=classic;endFill=1;" parent="1" edge="1">
          <mxGeometry relative="1" as="geometry">
            <mxPoint x="390" y="180" as="sourcePoint" />
            <mxPoint x="390" y="210" as="targetPoint" />
          </mxGeometry>
        </mxCell>
        <mxCell id="mP8B_jTsaXODHllWjWsl-30" value="" style="edgeStyle=orthogonalEdgeStyle;rounded=0;orthogonalLoop=1;jettySize=auto;html=1;fontColor=#00994D;startArrow=none;startFill=0;endArrow=classic;endFill=1;" parent="1" edge="1">
          <mxGeometry relative="1" as="geometry">
            <mxPoint x="387.5" y="90" as="sourcePoint" />
            <mxPoint x="388" y="120" as="targetPoint" />
          </mxGeometry>
        </mxCell>
        <mxCell id="mP8B_jTsaXODHllWjWsl-32" value="&lt;p style=&quot;margin-left: 0.25in;&quot; class=&quot;MsoNormal&quot;&gt;&lt;a name=&quot;_Hlk105873939&quot;&gt;Chapter 6&amp;nbsp;&lt;/a&gt;&lt;a style=&quot;background-color: initial;&quot; name=&quot;_Hlk105873939&quot;&gt;JDK_8u281 installation&lt;/a&gt;&lt;/p&gt;" style="rounded=1;whiteSpace=wrap;html=1;dashed=1;dashPattern=1 2;fontSize=10.5;align=left;fillColor=#dae8fc;strokeColor=#6c8ebf;" parent="1" vertex="1">
          <mxGeometry x="100" y="400" width="140" height="60" as="geometry" />
        </mxCell>
        <mxCell id="mP8B_jTsaXODHllWjWsl-33" value="&lt;p style=&quot;margin-left:.25in&quot; class=&quot;MsoNormal&quot;&gt;&lt;a name=&quot;_Hlk105875257&quot;&gt;Chapter 7.&lt;br&gt;WebLogic installation&lt;/a&gt;&lt;/p&gt;" style="rounded=1;whiteSpace=wrap;html=1;dashed=1;dashPattern=1 2;fontSize=10.5;align=left;fillColor=#d5e8d4;strokeColor=#82b366;" parent="1" vertex="1">
          <mxGeometry x="100" y="474" width="140" height="60" as="geometry" />
        </mxCell>
        <mxCell id="mP8B_jTsaXODHllWjWsl-34" value="&lt;p style=&quot;margin-left: 0.25in; font-size: 10.5px;&quot; class=&quot;MsoNormal&quot;&gt;Chapter 8.&amp;nbsp;&lt;span style=&quot;background-color: initial; font-size: 10.5px;&quot;&gt;Microsoft Visual C++&amp;nbsp;&lt;/span&gt;&lt;span style=&quot;background-color: initial; font-size: 10.5px;&quot;&gt;2012 (x64) installation&lt;/span&gt;&lt;/p&gt;" style="rounded=1;whiteSpace=wrap;html=1;dashed=1;dashPattern=1 2;fontSize=10.5;align=left;fillColor=#dae8fc;strokeColor=#6c8ebf;" parent="1" vertex="1">
          <mxGeometry x="522" y="400" width="140" height="60" as="geometry" />
        </mxCell>
        <mxCell id="mP8B_jTsaXODHllWjWsl-35" value="&lt;p style=&quot;margin-left: 0.25in; font-size: 10.5px;&quot; class=&quot;MsoNormal&quot;&gt;Chapter 9. Repository&lt;br style=&quot;font-size: 10.5px;&quot;&gt;configuration Utility (RCU)&lt;/p&gt;" style="rounded=1;whiteSpace=wrap;html=1;dashed=1;dashPattern=1 2;fontSize=10.5;align=left;fillColor=#d5e8d4;strokeColor=#82b366;" parent="1" vertex="1">
          <mxGeometry x="520" y="474" width="140" height="60" as="geometry" />
        </mxCell>
        <mxCell id="mP8B_jTsaXODHllWjWsl-37" value="&lt;p style=&quot;margin-left:.25in&quot; class=&quot;MsoNormal&quot;&gt;&lt;br&gt;&lt;/p&gt;" style="rounded=1;whiteSpace=wrap;html=1;align=center;horizontal=1;fontSize=10;verticalAlign=top;fillColor=#dae8fc;strokeColor=#6c8ebf;" parent="1" vertex="1">
          <mxGeometry x="58" y="702" width="634" height="110" as="geometry" />
        </mxCell>
        <mxCell id="mP8B_jTsaXODHllWjWsl-41" value="&lt;p style=&quot;margin-left:.25in&quot; class=&quot;MsoNormal&quot;&gt;Chapter 13. Start webserver for WebLogic&amp;nbsp;&lt;/p&gt;" style="rounded=1;whiteSpace=wrap;html=1;dashed=1;dashPattern=1 2;fontSize=10.5;align=left;fillColor=#dae8fc;strokeColor=#6c8ebf;" parent="1" vertex="1">
          <mxGeometry x="130" y="735" width="130" height="64" as="geometry" />
        </mxCell>
        <mxCell id="mP8B_jTsaXODHllWjWsl-43" value="&lt;p style=&quot;margin-left: 0.25in; font-size: 10.5px;&quot; class=&quot;MsoNormal&quot;&gt;&lt;font color=&quot;#ff0000&quot; style=&quot;font-size: 10.5px;&quot;&gt;Chapter 10. Oracle forms and&amp;nbsp;reports 12c installation&lt;/font&gt;&lt;/p&gt;" style="rounded=1;whiteSpace=wrap;html=1;dashed=1;dashPattern=1 2;fontSize=10.5;align=left;strokeColor=#d6b656;fillColor=#fff2cc;" parent="1" vertex="1">
          <mxGeometry x="292" y="440" width="160" height="70" as="geometry" />
        </mxCell>
        <mxCell id="mP8B_jTsaXODHllWjWsl-44" value="&lt;span style=&quot;color: rgb(0, 153, 77); font-size: 10px; background-color: initial;&quot;&gt;Chapter 14. Open form Builder and&amp;nbsp;&lt;/span&gt;&lt;span style=&quot;color: rgb(0, 153, 77); font-size: 10px; background-color: initial;&quot;&gt;Create Forms&amp;nbsp;&lt;/span&gt;" style="rounded=1;whiteSpace=wrap;html=1;dashed=1;dashPattern=1 2;fontSize=10.5;fillColor=#d5e8d4;strokeColor=#82b366;" parent="1" vertex="1">
          <mxGeometry x="320.5" y="732" width="130" height="66" as="geometry" />
        </mxCell>
        <mxCell id="mP8B_jTsaXODHllWjWsl-56" value="" style="edgeStyle=orthogonalEdgeStyle;rounded=0;orthogonalLoop=1;jettySize=auto;html=1;fontColor=#00994D;startArrow=none;startFill=0;endArrow=classic;endFill=1;entryX=0.527;entryY=0;entryDx=0;entryDy=0;entryPerimeter=0;" parent="1" target="mP8B_jTsaXODHllWjWsl-23" edge="1">
          <mxGeometry relative="1" as="geometry">
            <mxPoint x="390" y="351" as="sourcePoint" />
            <mxPoint x="390" y="381" as="targetPoint" />
          </mxGeometry>
        </mxCell>
        <mxCell id="mP8B_jTsaXODHllWjWsl-62" value="" style="verticalLabelPosition=bottom;verticalAlign=top;html=1;shape=mxgraph.basic.sun;dashed=1;dashPattern=1 2;fontSize=10.5;strokeColor=#36393d;fillColor=#ffff88;" parent="1" vertex="1">
          <mxGeometry x="320.5" y="940" width="20" height="20" as="geometry" />
        </mxCell>
        <mxCell id="mP8B_jTsaXODHllWjWsl-63" value="" style="verticalLabelPosition=bottom;verticalAlign=top;html=1;shape=mxgraph.basic.sun;dashed=1;dashPattern=1 2;fontSize=10.5;strokeColor=#36393d;fillColor=#ffff88;" parent="1" vertex="1">
          <mxGeometry x="420.5" y="940" width="20" height="20" as="geometry" />
        </mxCell>
        <mxCell id="mP8B_jTsaXODHllWjWsl-64" value="" style="verticalLabelPosition=bottom;verticalAlign=top;html=1;shape=mxgraph.basic.star;dashed=1;dashPattern=1 2;fontSize=10.5;fontColor=#FF0000;strokeColor=#FFFF00;fillColor=#FFFF00;" parent="1" vertex="1">
          <mxGeometry x="470" y="62.5" width="15.79" height="15" as="geometry" />
        </mxCell>
        <mxCell id="mP8B_jTsaXODHllWjWsl-65" value="&lt;p style=&quot;margin-left:.25in&quot; class=&quot;MsoNormal&quot;&gt;Chapter 16. Verification&lt;/p&gt;" style="shape=process;whiteSpace=wrap;html=1;backgroundOutline=1;dashed=1;dashPattern=1 2;fontSize=10.5;align=left;fillColor=#dae8fc;strokeColor=#6c8ebf;" parent="1" vertex="1">
          <mxGeometry x="200.5" y="820" width="120" height="60" as="geometry" />
        </mxCell>
        <mxCell id="mP8B_jTsaXODHllWjWsl-66" value="&lt;p style=&quot;margin-left:.25in&quot; class=&quot;MsoNormal&quot;&gt;Chapter 17. Error Fix&amp;nbsp;&lt;/p&gt;" style="shape=process;whiteSpace=wrap;html=1;backgroundOutline=1;dashed=1;dashPattern=1 2;fontSize=10.5;align=left;fillColor=#f8cecc;strokeColor=#b85450;" parent="1" vertex="1">
          <mxGeometry x="460" y="820" width="120" height="60" as="geometry" />
        </mxCell>
        <mxCell id="6tvG0H1lL4JtyoEsStvU-8" value="&lt;h2 style=&quot;&quot;&gt;&lt;br&gt;&lt;/h2&gt;" style="rounded=1;whiteSpace=wrap;html=1;dashed=1;dashPattern=1 2;align=center;" vertex="1" parent="1">
          <mxGeometry x="153" y="570" width="480" height="100" as="geometry" />
        </mxCell>
        <mxCell id="mP8B_jTsaXODHllWjWsl-59" value="&lt;p style=&quot;margin-left:.25in&quot; class=&quot;MsoNormal&quot;&gt;Chapter 15. Create reports&lt;/p&gt;" style="rounded=1;whiteSpace=wrap;html=1;dashed=1;dashPattern=1 2;fontSize=10.5;align=left;fillColor=#dae8fc;strokeColor=#6c8ebf;" parent="1" vertex="1">
          <mxGeometry x="500" y="734" width="140" height="64" as="geometry" />
        </mxCell>
        <mxCell id="mP8B_jTsaXODHllWjWsl-40" value="&lt;p style=&quot;margin-left: 0.25in; font-size: 10.5px;&quot; class=&quot;MsoNormal&quot;&gt;&lt;span style=&quot;font-size: 10.5px;&quot;&gt;Chapter 12.&lt;br style=&quot;font-size: 10.5px;&quot;&gt;Wizard configuration, TNS configuration and verification&lt;/span&gt;&lt;/p&gt;" style="rounded=1;whiteSpace=wrap;html=1;dashed=1;dashPattern=1 2;fontSize=10.5;align=left;fillColor=#dae8fc;strokeColor=#6c8ebf;fontColor=#330000;" parent="1" vertex="1">
          <mxGeometry x="440" y="595" width="144" height="60" as="geometry" />
        </mxCell>
        <mxCell id="mP8B_jTsaXODHllWjWsl-39" value="&lt;p style=&quot;margin-left: 0.25in; font-size: 10.5px;&quot; class=&quot;MsoNormal&quot;&gt;Chapter 11. Domain configurations&lt;/p&gt;" style="rounded=1;whiteSpace=wrap;html=1;dashed=1;dashPattern=1 2;fontSize=10.5;align=left;fillColor=#dae8fc;strokeColor=#6c8ebf;" parent="1" vertex="1">
          <mxGeometry x="210" y="596" width="130" height="60" as="geometry" />
        </mxCell>
        <mxCell id="6tvG0H1lL4JtyoEsStvU-11" value="&lt;h2 style=&quot;font-size: 10px;&quot;&gt;&lt;font style=&quot;font-size: 10px;&quot;&gt;Important configurations&lt;/font&gt;&lt;/h2&gt;" style="text;html=1;strokeColor=none;fillColor=none;align=center;verticalAlign=middle;whiteSpace=wrap;rounded=0;dashed=1;dashPattern=1 2;fontSize=10;fontColor=#0000CC;" vertex="1" parent="1">
          <mxGeometry x="320" y="572" width="127.5" height="20" as="geometry" />
        </mxCell>
        <mxCell id="6tvG0H1lL4JtyoEsStvU-17" value="Starting servers and creating forms &amp;amp; reports" style="text;html=1;strokeColor=none;fillColor=none;align=center;verticalAlign=middle;whiteSpace=wrap;rounded=0;dashed=1;dashPattern=1 2;fontSize=10;fontColor=#0000CC;fontStyle=1" vertex="1" parent="1">
          <mxGeometry x="245" y="704" width="300" height="22" as="geometry" />
        </mxCell>
        <mxCell id="6tvG0H1lL4JtyoEsStvU-20" value="" style="edgeStyle=orthogonalEdgeStyle;rounded=0;orthogonalLoop=1;jettySize=auto;html=1;fontColor=#00994D;startArrow=none;startFill=0;endArrow=classic;endFill=1;entryX=0.527;entryY=0;entryDx=0;entryDy=0;entryPerimeter=0;" edge="1" parent="1">
          <mxGeometry relative="1" as="geometry">
            <mxPoint x="393" y="540" as="sourcePoint" />
            <mxPoint x="393.11799999999994" y="569" as="targetPoint" />
          </mxGeometry>
        </mxCell>
        <mxCell id="6tvG0H1lL4JtyoEsStvU-21" value="&lt;b style=&quot;font-size: 12px; background-color: initial; text-align: left;&quot;&gt;SQL Setup&lt;/b&gt;" style="text;html=1;strokeColor=none;fillColor=none;align=center;verticalAlign=middle;whiteSpace=wrap;rounded=0;dashed=1;dashPattern=1 2;fontSize=10;fontColor=#0000CC;" vertex="1" parent="1">
          <mxGeometry x="305.5" y="210" width="160" height="20" as="geometry" />
        </mxCell>
        <mxCell id="6tvG0H1lL4JtyoEsStvU-22" value="&lt;b&gt;Setting up oracle infrastructure&amp;nbsp;&lt;/b&gt;" style="text;html=1;strokeColor=none;fillColor=none;align=center;verticalAlign=middle;whiteSpace=wrap;rounded=0;dashed=1;dashPattern=1 2;fontSize=10;fontColor=#0000CC;" vertex="1" parent="1">
          <mxGeometry x="300" y="380" width="190" height="30" as="geometry" />
        </mxCell>
        <mxCell id="6tvG0H1lL4JtyoEsStvU-24" value="" style="edgeStyle=orthogonalEdgeStyle;rounded=0;orthogonalLoop=1;jettySize=auto;html=1;fontColor=#00994D;startArrow=none;startFill=0;endArrow=classic;endFill=1;entryX=0.5;entryY=0;entryDx=0;entryDy=0;" edge="1" parent="1" target="6tvG0H1lL4JtyoEsStvU-17">
          <mxGeometry relative="1" as="geometry">
            <mxPoint x="396" y="671" as="sourcePoint" />
            <mxPoint x="396" y="700" as="targetPoint" />
          </mxGeometry>
        </mxCell>
      </root>
    </mxGraphModel>
  </diagram>
</mxfile>
